:SAMPLES-PER-SECOND 30
:FULLY-SPECIFIED
:DEGREES
468
root  -3.87658 40.9502 -1.62438 -5.3421 -79.0003 6.58936
RightUpLeg  5.07422 -2.15994 0.517517
RightLeg  -6.56553 -33.1844 5.39732
RightFoot  -1.06086 -0.00937596 -0.0233742
RightToes  -3.10678e-008 1.75238e-005 3.56266e-009
Spine  4.90433 -0.556278 1.01625
Spine1  -9.48077 -0.486294 -0.275148
HEad  -2.64652 5.2144 -1.75804
LeftShoulder1  0.452408 1.50228 -15.7811
LeftArm  -5.83579 -1.24045 -62.7786
LeftForeArm  133.254 -79.8048 -115.149
LeftHand  -0.588538 -5.13004 6.79258
RightShoulder  1.18583 1.43817 17.463
RightArm  -1.98393 13.0044 54.6717
RightForeArm  51.7951 76.9134 49.3477
RightHand  -0.383025 7.89595 -3.70881
LeftUpLeg  1.74641 0.943407 3.29497
LeftLeg  -4.49797 7.1215 -0.888303
LeftFoot  2.59152 0.567274 -4.77048
LeftToes  4.7643e-008 1.47522e-008 1.32869e-009
469
root  -3.86763 40.9432 -1.6457 -5.1106 -78.1528 6.44513
RightUpLeg  5.00816 -2.06764 0.596483
RightLeg  -6.63164 -34.1315 5.3921
RightFoot  -1.12311 -0.0166146 0.0677956
RightToes  -3.10678e-008 1.75238e-005 3.56266e-009
Spine  5.08384 -0.328081 1.01852
Spine1  -9.65757 -0.254224 -0.312247
HEad  -2.80839 5.29217 -1.16994
LeftShoulder1  0.498748 1.31914 -16.0374
LeftArm  -7.06894 -2.76201 -61.416
LeftForeArm  131.065 -79.9244 -113.343
LeftHand  -0.628646 -5.50903 7.00988
RightShoulder  1.20208 1.52797 17.3433
RightArm  -1.73781 11.9806 55.2691
RightForeArm  52.1627 76.7757 48.1536
RightHand  -0.420626 8.21962 -3.96629
LeftUpLeg  1.38585 0.863095 3.2519
LeftLeg  -4.26105 6.49099 -0.80333
LeftFoot  2.58581 0.578676 -4.86542
LeftToes  4.7643e-008 1.47522e-008 1.32869e-009
470
root  -3.88321 40.9306 -1.69063 -4.77911 -76.8252 6.19183
RightUpLeg  5.03456 -1.99725 0.719567
RightLeg  -6.83567 -35.6125 5.51985
RightFoot  -1.26752 -0.0173965 0.0614978
RightToes  -3.10678e-008 1.75238e-005 3.56266e-009
Spine  5.16421 -0.338448 0.944892
Spine1  -9.73937 -0.24772 -0.480399
HEad  -2.83263 5.03103 -0.901637
LeftShoulder1  0.449648 1.50737 -15.707
LeftArm  -9.62161 -5.41509 -60.3724
LeftForeArm  128.892 -80.1646 -110.371
LeftHand  -0.540215 -5.69779 5.97794
RightShoulder  1.22738 1.62501 17.3867
RightArm  -0.813004 10.0337 55.4261
RightForeArm  50.9665 76.8793 49.4631
RightHand  -0.516081 7.49671 -4.9949
LeftUpLeg  0.981939 0.982591 3.31475
LeftLeg  -4.00667 5.02909 -0.869988
LeftFoot  2.57005 0.569726 -4.79733
LeftToes  4.7643e-008 1.47522e-008 1.32869e-009
471
root  -3.90145 40.9183 -1.72303 -4.83405 -75.6521 6.28387
RightUpLeg  4.87714 -2.20904 0.616332
RightLeg  -6.31115 -36.5378 5.39754
RightFoot  -1.69228 -0.0232936 0.141533
RightToes  -3.10678e-008 1.75238e-005 3.56266e-009
Spine  5.13483 -0.18688 0.658794
Spine1  -9.61469 -0.104471 -0.367026
HEad  -3.26962 5.14077 -0.557535
LeftShoulder1  0.497749 1.30686 -15.862
LeftArm  -13.4555 -9.36125 -56.9169
LeftForeArm  121.923 -80.4529 -104.048
LeftHand  -0.556586 -5.23637 6.37937
RightShoulder  1.21769 1.53137 17.664
RightArm  -0.00530857 7.06291 55.1294
RightForeArm  51.181 76.6935 48.0083
RightHand  -0.460778 7.82291 -4.41665
LeftUpLeg  0.815034 0.858907 3.18646
LeftLeg  -4.05159 4.00878 -0.808487
LeftFoot  2.67314 0.552625 -4.62703
LeftToes  4.7643e-008 1.47522e-008 1.32869e-009
472
root  -3.91631 40.9072 -1.77885 -4.69073 -74.1194 6.17542
RightUpLeg  4.97457 -2.36074 0.592037
RightLeg  -6.45063 -37.8433 5.6802
RightFoot  -1.92704 -0.02087 0.0946254
RightToes  -3.10678e-008 1.75238e-005 3.56266e-009
Spine  5.63166 -0.305601 0.207252
Spine1  -10.0822 -0.253045 -0.0587557
HEad  -3.38725 4.16429 -0.614483
LeftShoulder1  0.49574 1.29464 -15.561
LeftArm  -18.9734 -14.4574 -53.3273
LeftForeArm  110.26 -80.7134 -92.5019
LeftHand  -0.462033 -5.02657 5.45697
RightShoulder  1.19314 1.39107 17.8659
RightArm  0.991637 3.23929 54.8451
RightForeArm  50.2687 76.0912 44.5207
RightHand  -0.38903 8.47481 -3.6279
LeftUpLeg  0.495576 0.791154 3.1317
LeftLeg  -3.97783 2.57838 -0.732276
LeftFoot  2.70684 0.596884 -4.9769
LeftToes  4.7643e-008 1.47522e-008 1.32869e-009
473
root  -3.97042 40.894 -1.81907 -4.61987 -72.9298 6.11023
RightUpLeg  5.01827 -2.47653 0.591627
RightLeg  -6.2551 -38.8706 5.69566
RightFoot  -2.22029 -0.0257257 0.161186
RightToes  -3.10678e-008 1.75238e-005 3.56266e-009
Spine  6.28841 -0.358926 -0.645334
Spine1  -10.8301 -0.383759 0.741995
HEad  -3.66627 4.45816 -0.725672
LeftShoulder1  0.332063 1.93452 -14.2584
LeftArm  -25.0681 -19.0867 -50.5029
LeftForeArm  97.0546 -80.561 -79.4868
LeftHand  -0.454963 -4.55743 5.59559
RightShoulder  1.30251 1.68305 18.6752
RightArm  2.34262 -0.934764 53.4224
RightForeArm  47.9049 75.2766 41.1108
RightHand  -0.406801 8.30477 -3.81782
LeftUpLeg  0.328253 0.647079 3.05499
LeftLeg  -3.85185 1.57121 -0.56791
LeftFoot  2.64296 0.619204 -5.17838
LeftToes  4.7643e-008 1.47522e-008 1.32869e-009
474
root  -4.04158 40.8859 -1.84279 -4.42487 -72.0575 6.01544
RightUpLeg  5.09766 -2.51322 0.63655
RightLeg  -6.38902 -39.656 5.84867
RightFoot  -2.3473 -0.0320042 0.250237
RightToes  -3.10678e-008 1.75238e-005 3.56266e-009
Spine  6.44901 -0.111276 -2.07285
Spine1  -11.037 -0.309367 2.57845
HEad  -4.44285 4.5062 -1.02765
LeftShoulder1  0.253423 2.26998 -13.4856
LeftArm  -31.8521 -22.8299 -46.4788
LeftForeArm  86.7685 -80.087 -69.9243
LeftHand  -0.423502 -4.54469 5.23546
RightShoulder  1.33257 1.77762 18.7983
RightArm  3.12673 -5.25371 52.2606
RightForeArm  45.6198 74.4329 38.1941
RightHand  -0.355012 8.30674 -3.38089
LeftUpLeg  0.172548 0.558311 3.0186
LeftLeg  -3.83614 0.811223 -0.478086
LeftFoot  2.60158 0.631761 -5.29159
LeftToes  4.7643e-008 1.47522e-008 1.32869e-009
